<svg xmlns="http://www.w3.org/2000/svg" xmlns:xlink="http://www.w3.org/1999/xlink" viewBox="0,0,256,256" width="90px" height="90px" fill-rule="nonzero"><g fill="#858585" fill-rule="nonzero" stroke="none" stroke-width="1" stroke-linecap="butt" stroke-linejoin="miter" stroke-miterlimit="10" stroke-dasharray="" stroke-dashoffset="0" font-family="none" font-weight="none" font-size="none" text-anchor="none" style="mix-blend-mode: normal"><g transform="scale(8.53333,8.53333)"><path d="M4,3c-1.105,0 -2,0.895 -2,2v3h11h15v-1c0,-1.105 -0.895,-2 -2,-2h-14.80078l-0.61719,-1.0293c-0.361,-0.602 -1.01184,-0.9707 -1.71484,-0.9707zM3,10c-0.552,0 -1,0.448 -1,1v12c0,1.105 0.895,2 2,2h22c1.105,0 2,-0.895 2,-2v-12c0,-0.552 -0.448,-1 -1,-1z"></path></g></g></svg>